<svg width="28" height="28" viewBox="0 0 28 28" fill="none" xmlns="http://www.w3.org/2000/svg">
<path fill-rule="evenodd" clip-rule="evenodd" d="M8.33337 9.33329C8.33337 6.20368 10.8704 3.66663 14 3.66663C17.1297 3.66663 19.6667 6.20368 19.6667 9.33329C19.6667 12.4629 17.1297 15 14 15C10.8704 15 8.33337 12.4629 8.33337 9.33329ZM14 5.66663C11.975 5.66663 10.3334 7.30825 10.3334 9.33329C10.3334 11.3583 11.975 13 14 13C16.0251 13 17.6667 11.3583 17.6667 9.33329C17.6667 7.30825 16.0251 5.66663 14 5.66663Z" fill="#0F1729"/>
<path d="M7.28641 6.79141C7.81555 6.63321 8.11626 6.07601 7.95806 5.54687C7.79986 5.01772 7.24266 4.71702 6.71351 4.87522C4.87818 5.42393 3.66663 7.28516 3.66663 9.33331C3.66663 11.3815 4.87818 13.2427 6.71351 13.7914C7.24266 13.9496 7.79986 13.6489 7.95806 13.1198C8.11626 12.5906 7.81555 12.0334 7.28641 11.8752C6.43805 11.6216 5.66663 10.653 5.66663 9.33331C5.66663 8.01365 6.43805 7.04505 7.28641 6.79141Z" fill="#0F1729"/>
<path d="M21.2864 4.87522C20.7573 4.71702 20.2001 5.01772 20.0419 5.54687C19.8837 6.07601 20.1844 6.63321 20.7136 6.79141C21.5619 7.04505 22.3333 8.01365 22.3333 9.33331C22.3333 10.653 21.5619 11.6216 20.7136 11.8752C20.1844 12.0334 19.8837 12.5906 20.0419 13.1198C20.2001 13.6489 20.7573 13.9496 21.2864 13.7914C23.1218 13.2427 24.3333 11.3815 24.3333 9.33331C24.3333 7.28516 23.1218 5.42393 21.2864 4.87522Z" fill="#0F1729"/>
<path fill-rule="evenodd" clip-rule="evenodd" d="M14 16.5C11.684 16.5 9.48165 16.7959 7.8195 17.5339C6.12912 18.2846 4.83337 19.5892 4.83337 21.5833C4.83337 22.1075 4.92903 22.6935 5.27776 23.2498C5.62646 23.806 6.16623 24.2341 6.87952 24.5568C8.25525 25.1792 10.484 25.5 14 25.5C17.5161 25.5 19.7448 25.1792 21.1206 24.5568C21.8339 24.2341 22.3736 23.806 22.7223 23.2498C23.0711 22.6935 23.1667 22.1075 23.1667 21.5833C23.1667 19.5892 21.871 18.2846 20.1806 17.5339C18.5184 16.7959 16.316 16.5 14 16.5ZM6.83337 21.5833C6.83337 20.6608 7.3658 19.9237 8.63117 19.3618C9.92478 18.7874 11.8057 18.5 14 18.5C16.1944 18.5 18.0753 18.7874 19.3689 19.3618C20.6343 19.9237 21.1667 20.6608 21.1667 21.5833C21.1667 21.8645 21.1165 22.0458 21.0278 22.1875C20.939 22.3291 20.7496 22.5295 20.2962 22.7346C19.3386 23.1678 17.484 23.5 14 23.5C10.5161 23.5 8.6615 23.1678 7.7039 22.7346C7.25052 22.5295 7.06112 22.3291 6.97232 22.1875C6.88355 22.0458 6.83337 21.8645 6.83337 21.5833Z" fill="#0F1729"/>
<path d="M22.4376 15.8888C22.6831 15.3941 23.2832 15.192 23.7779 15.4375C25.4771 16.2808 26.6667 17.7238 26.6667 19.8333C26.6667 20.3856 26.219 20.8333 25.6667 20.8333C25.1144 20.8333 24.6667 20.3856 24.6667 19.8333C24.6667 18.6434 24.0636 17.8121 22.8889 17.2291C22.3941 16.9836 22.1921 16.3835 22.4376 15.8888Z" fill="#0F1729"/>
<path d="M5.11123 17.2291C5.60595 16.9836 5.80798 16.3835 5.56248 15.8888C5.31697 15.3941 4.71691 15.192 4.22219 15.4375C2.52301 16.2808 1.33337 17.7238 1.33337 19.8333C1.33337 20.3856 1.78109 20.8333 2.33337 20.8333C2.88566 20.8333 3.33337 20.3856 3.33337 19.8333C3.33337 18.6434 3.93646 17.8121 5.11123 17.2291Z" fill="#0F1729"/>
</svg>
