<svg width="32" height="30" viewBox="0 0 32 30" fill="none" xmlns="http://www.w3.org/2000/svg">
<path fill-rule="evenodd" clip-rule="evenodd" d="M16.1388 3.57132C12.1727 3.57132 9.08215 6.38579 9.08215 9.71794V12.7733C9.08215 13.1309 8.92441 13.454 8.83361 13.6267C8.71924 13.8443 8.56797 14.0781 8.4036 14.3112C8.07276 14.7804 7.62789 15.332 7.15086 15.893C6.50055 16.6577 6.35456 17.5527 6.56776 18.2524C6.77259 18.9246 7.31123 19.4542 8.21085 19.594C10.296 19.9182 12.9598 20.1785 16.1388 20.1785C19.5521 20.1785 22.1643 19.8784 24.0569 19.5254C24.7956 19.3876 25.2348 18.9609 25.4219 18.4125C25.6188 17.8355 25.5447 17.072 25.069 16.3563C24.8518 16.0296 24.6187 15.6964 24.3852 15.3639C24.3612 15.3299 24.3373 15.2957 24.3133 15.2616C24.1064 14.9673 23.8992 14.6726 23.7148 14.3989C23.5111 14.0966 23.3162 13.7923 23.1694 13.517C23.0509 13.2948 22.8571 12.9063 22.8571 12.4999V9.63982C22.8571 6.26456 20.057 3.57132 16.1388 3.57132ZM6.79644 9.71794C6.79644 5.07726 11.048 1.42847 16.1388 1.42847C21.2775 1.42847 25.1428 5.04223 25.1428 9.63982V12.4115C25.154 12.4381 25.1753 12.4865 25.2139 12.5588C25.3084 12.736 25.4541 12.9678 25.6472 13.2545C25.8191 13.5095 26.0135 13.7862 26.2228 14.0839C26.2464 14.1174 26.2701 14.1511 26.294 14.1852C26.5273 14.5172 26.7747 14.8709 27.0088 15.2229C27.8074 16.4243 28.018 17.837 27.5989 19.0654C27.17 20.3225 26.0925 21.3306 24.5029 21.6271C22.4577 22.0085 19.6958 22.3213 16.1388 22.3213C12.8265 22.3213 10.0373 22.0501 7.8369 21.708C6.01827 21.4253 4.80378 20.2647 4.36996 18.841C3.94451 17.4447 4.27432 15.8381 5.36364 14.5571C5.82518 14.0144 6.22133 13.5203 6.49688 13.1295C6.63569 12.9327 6.72896 12.783 6.78331 12.6796C6.78824 12.6702 6.7926 12.6617 6.79644 12.654V9.71794ZM20.8974 24.3365C21.2882 24.8011 21.2033 25.4748 20.7076 25.8412C18.0547 27.8024 13.9726 27.8271 11.2913 25.8405C10.7962 25.4736 10.712 24.7998 11.1034 24.3355C11.4947 23.8713 12.2134 23.7924 12.7086 24.1593C14.5526 25.5256 17.4629 25.511 19.2923 24.1586C19.788 23.7922 20.5066 23.8718 20.8974 24.3365Z" fill="#EEEEEE"/>
</svg>
