<svg width="325" height="58" viewBox="0 0 325 58" fill="none" xmlns="http://www.w3.org/2000/svg">
<path d="M317 0H8C3.58172 0 0 3.58172 0 8V50C0 54.4183 3.58172 58 8 58H317C321.418 58 325 54.4183 325 50V8C325 3.58172 321.418 0 317 0Z" fill="white"/>
<path d="M317 0.5H8C3.85786 0.5 0.5 3.85786 0.5 8V50C0.5 54.1421 3.85786 57.5 8 57.5H317C321.142 57.5 324.5 54.1421 324.5 50V8C324.5 3.85786 321.142 0.5 317 0.5Z" stroke="#EEEEEE"/>
<path d="M95.8375 25.9312C95.2991 25.9312 94.7823 26.1424 94.3981 26.5196C94.0139 26.8967 93.7932 27.4096 93.7833 27.9479L93.7635 29.0635C93.7623 29.1234 93.7485 29.1824 93.723 29.2366C93.6974 29.2907 93.6607 29.3389 93.6152 29.3779C93.5697 29.4169 93.5165 29.4458 93.4591 29.4628C93.4016 29.4798 93.3412 29.4845 93.2818 29.4765L92.1761 29.3263C90.7212 29.128 89.3272 28.4579 87.9899 27.3437C87.5663 29.6882 88.3936 31.3125 90.3862 32.5655L91.6236 33.3432C91.6824 33.3802 91.7313 33.431 91.7659 33.4912C91.8005 33.5514 91.8199 33.6191 91.8222 33.6885C91.8246 33.758 91.81 33.8269 91.7795 33.8893C91.7491 33.9517 91.7038 34.0057 91.6477 34.0466L90.52 34.8704C91.1908 34.9122 91.8276 34.8825 92.356 34.7776C95.698 34.1104 97.92 31.5958 97.92 27.4478C97.92 27.1092 97.2032 25.9312 95.8375 25.9312ZM92.3667 27.9217C92.379 27.2389 92.5925 26.5749 92.9805 26.0129C93.3684 25.4508 93.9135 25.0157 94.5476 24.7621C95.1816 24.5084 95.8764 24.4473 96.5449 24.5867C97.2135 24.726 97.8261 25.0594 98.306 25.5452C98.8097 25.5417 99.2382 25.6692 100.197 25.0883C99.9593 26.25 99.8424 26.7543 99.3367 27.4478C99.3367 32.8609 96.0096 35.493 92.6337 36.1667C90.3189 36.6285 86.9529 35.8699 85.9881 34.8626C86.4797 34.8244 88.4772 34.6097 89.6318 33.7647C88.655 33.1208 84.767 30.8329 87.3219 24.6817C88.5211 26.0821 89.7373 27.0355 90.9698 27.5413C91.7901 27.8777 91.9913 27.8707 92.3674 27.9224L92.3667 27.9217Z" fill="black"/>
</svg>
