<svg width="325" height="58" viewBox="0 0 325 58" fill="none" xmlns="http://www.w3.org/2000/svg">
<path d="M317 0H8C3.58172 0 0 3.58172 0 8V50C0 54.4183 3.58172 58 8 58H317C321.418 58 325 54.4183 325 50V8C325 3.58172 321.418 0 317 0Z" fill="white"/>
<path d="M317 0.5H8C3.85786 0.5 0.5 3.85786 0.5 8V50C0.5 54.1421 3.85786 57.5 8 57.5H317C321.142 57.5 324.5 54.1421 324.5 50V8C324.5 3.85786 321.142 0.5 317 0.5Z" stroke="#EEEEEE"/>
<path d="M100.123 29.8625H93.6275V31.7962H98.2387C98.005 34.495 95.7596 35.6495 93.6346 35.6495C90.9217 35.6495 88.5417 33.5104 88.5417 30.5C88.5417 27.5958 90.8083 25.3504 93.6417 25.3504C95.8304 25.3504 97.1125 26.7458 97.1125 26.7458L98.4583 25.3433C98.4583 25.3433 96.73 23.4166 93.5708 23.4166C89.5475 23.4166 86.4379 26.8166 86.4379 30.5C86.4379 34.077 89.3633 37.5833 93.6771 37.5833C97.4667 37.5833 100.229 34.9837 100.229 31.1445C100.229 30.33 100.123 29.8625 100.123 29.8625Z" fill="black"/>
</svg>
