<svg width="73" height="73" viewBox="0 0 73 73" fill="none" xmlns="http://www.w3.org/2000/svg">
<g filter="url(#filter0_d_4_14)">
<path d="M53 10H20C16.6863 10 14 12.6863 14 16V49C14 52.3137 16.6863 55 20 55H53C56.3137 55 59 52.3137 59 49V16C59 12.6863 56.3137 10 53 10Z" fill="#3098BD"/>
</g>
<path d="M32 37L28 33L32 37ZM28 33L32 29L28 33ZM28 33H46H28Z" fill="#3098BD"/>
<path d="M28 33H46M32 37L28 33L32 37ZM28 33L32 29L28 33Z" stroke="white" stroke-width="2" stroke-linecap="round" stroke-linejoin="round"/>
<defs>
<filter id="filter0_d_4_14" x="0" y="0" width="73" height="73" filterUnits="userSpaceOnUse" color-interpolation-filters="sRGB">
<feFlood flood-opacity="0" result="BackgroundImageFix"/>
<feColorMatrix in="SourceAlpha" type="matrix" values="0 0 0 0 0 0 0 0 0 0 0 0 0 0 0 0 0 0 127 0" result="hardAlpha"/>
<feOffset dy="4"/>
<feGaussianBlur stdDeviation="7"/>
<feColorMatrix type="matrix" values="0 0 0 0 0.157483 0 0 0 0 0.804167 0 0 0 0 0.338554 0 0 0 0.19 0"/>
<feBlend mode="normal" in2="BackgroundImageFix" result="effect1_dropShadow_4_14"/>
<feBlend mode="normal" in="SourceGraphic" in2="effect1_dropShadow_4_14" result="shape"/>
</filter>
</defs>
</svg>
