<svg width="42" height="42" viewBox="0 0 42 42" fill="none" xmlns="http://www.w3.org/2000/svg">
<g filter="url(#filter0_i_1_310)">
<path d="M21 42C32.598 42 42 32.598 42 21C42 9.40202 32.598 0 21 0C9.40202 0 0 9.40202 0 21C0 32.598 9.40202 42 21 42Z" fill="#3098BD" fill-opacity="0.16"/>
</g>
<path d="M24.481 30.131C21.796 30.131 18.638 28.706 15.981 26.055C11.748 21.822 10.648 16.296 13.469 13.474C14.2812 12.6523 15.3422 12.1221 16.487 11.966L17.163 11.866L19.648 17.67L17.163 18.913C17.8583 20.158 18.7345 21.2931 19.763 22.281C20.7509 23.296 21.879 24.1645 23.113 24.86L24.282 22.571L30.049 23.395L30.083 24.131C30.1596 24.937 30.0638 25.7501 29.8021 26.5163C29.5404 27.2825 29.1187 27.9842 28.565 28.575C28.0226 29.0938 27.3818 29.4988 26.6804 29.7661C25.979 30.0333 25.2311 30.1574 24.481 30.131ZM16.09 13.882C15.5752 14.0554 15.1084 14.3472 14.727 14.734C12.681 16.779 13.834 21.388 17.243 24.797C20.652 28.206 25.261 29.357 27.307 27.313C27.9105 26.6655 28.2609 25.8225 28.294 24.938L25.294 24.51L24.725 25.66C24.6194 25.8737 24.4715 26.0638 24.2901 26.2185C24.1087 26.3733 23.8977 26.4894 23.67 26.56C23.4378 26.6319 23.1936 26.6566 22.9518 26.6326C22.71 26.6085 22.4754 26.5362 22.262 26.42C20.8772 25.6445 19.6107 24.6746 18.501 23.54C17.3518 22.4292 16.372 21.1556 15.593 19.76C15.4808 19.5494 15.4119 19.3186 15.3902 19.081C15.3686 18.8434 15.3947 18.6039 15.467 18.3765C15.5393 18.1491 15.6563 17.9385 15.8112 17.7571C15.9661 17.5757 16.1558 17.427 16.369 17.32L17.348 16.829L16.09 13.882Z" fill="#3098BD"/>
<defs>
<filter id="filter0_i_1_310" x="0" y="0" width="42" height="47" filterUnits="userSpaceOnUse" color-interpolation-filters="sRGB">
<feFlood flood-opacity="0" result="BackgroundImageFix"/>
<feBlend mode="normal" in="SourceGraphic" in2="BackgroundImageFix" result="shape"/>
<feColorMatrix in="SourceAlpha" type="matrix" values="0 0 0 0 0 0 0 0 0 0 0 0 0 0 0 0 0 0 127 0" result="hardAlpha"/>
<feOffset dy="5"/>
<feGaussianBlur stdDeviation="4"/>
<feComposite in2="hardAlpha" operator="arithmetic" k2="-1" k3="1"/>
<feColorMatrix type="matrix" values="0 0 0 0 0.188235 0 0 0 0 0.596078 0 0 0 0 0.741176 0 0 0 0.3 0"/>
<feBlend mode="soft-light" in2="shape" result="effect1_innerShadow_1_310"/>
</filter>
</defs>
</svg>
