<svg width="278" height="106" viewBox="0 0 278 106" fill="none" xmlns="http://www.w3.org/2000/svg">
<g filter="url(#filter0_d_1_295)">
<path d="M15 11H248C251.978 11 255.794 12.5804 258.607 15.3934C261.42 18.2064 263 22.0218 263 26V72C263 75.9782 261.42 79.7936 258.607 82.6066C255.794 85.4197 251.978 87 248 87H30C26.0218 87 22.2064 85.4197 19.3934 82.6066C16.5804 79.7936 15 75.9782 15 72V11Z" fill="white"/>
<path d="M16 11.5H248C251.846 11.5 255.534 13.0277 258.253 15.747C260.972 18.4662 262.5 22.1544 262.5 26V72C262.5 75.8456 260.972 79.5338 258.253 82.2531C255.534 84.9723 251.846 86.5 248 86.5H30C26.1544 86.5 22.4662 84.9723 19.747 82.2531C17.0277 79.5338 15.5 75.8456 15.5 72V12C15.5 11.8674 15.5527 11.7402 15.6464 11.6464C15.7402 11.5527 15.8674 11.5 16 11.5V11.5Z" stroke="#EEEEEE"/>
</g>
<defs>
<filter id="filter0_d_1_295" x="0" y="0" width="278" height="106" filterUnits="userSpaceOnUse" color-interpolation-filters="sRGB">
<feFlood flood-opacity="0" result="BackgroundImageFix"/>
<feColorMatrix in="SourceAlpha" type="matrix" values="0 0 0 0 0 0 0 0 0 0 0 0 0 0 0 0 0 0 127 0" result="hardAlpha"/>
<feOffset dy="4"/>
<feGaussianBlur stdDeviation="7.5"/>
<feColorMatrix type="matrix" values="0 0 0 0 0.184314 0 0 0 0 0.231373 0 0 0 0 0.301961 0 0 0 0.039 0"/>
<feBlend mode="normal" in2="BackgroundImageFix" result="effect1_dropShadow_1_295"/>
<feBlend mode="normal" in="SourceGraphic" in2="effect1_dropShadow_1_295" result="shape"/>
</filter>
</defs>
</svg>
