<svg width="25" height="26" viewBox="0 0 25 26" fill="none" xmlns="http://www.w3.org/2000/svg">
<path fill-rule="evenodd" clip-rule="evenodd" d="M12.7913 4.02555C12.601 3.96794 12.399 3.96794 12.2087 4.02555C12.154 4.04213 12.0578 4.08362 11.8531 4.24479C11.6378 4.41429 11.3743 4.65687 10.9637 5.03648L5.50571 10.082C4.83659 10.7006 4.64691 10.8871 4.51504 11.0934C4.38819 11.2919 4.29368 11.5107 4.23533 11.7412C4.17468 11.9808 4.16666 12.2521 4.16666 13.1832V18.6009C4.16666 19.5445 4.1675 20.186 4.20707 20.6815C4.2456 21.1641 4.31541 21.4104 4.40122 21.5822C4.59888 21.9779 4.90913 22.3006 5.28964 22.5062C5.45482 22.5954 5.69168 22.668 6.15568 22.7081C6.63214 22.7492 7.24893 22.7501 8.15625 22.7501H8.33333V19.5001C8.33333 17.1069 10.1988 15.1668 12.5 15.1668C14.8012 15.1668 16.6667 17.1069 16.6667 19.5001V22.7501H16.8437C17.7511 22.7501 18.3678 22.7492 18.8443 22.7081C19.3083 22.668 19.5452 22.5954 19.7104 22.5062C20.0909 22.3006 20.4011 21.9779 20.5988 21.5822C20.6846 21.4104 20.7544 21.1641 20.7929 20.6815C20.8325 20.186 20.8333 19.5445 20.8333 18.6009V13.1832C20.8333 12.2521 20.8253 11.9808 20.7647 11.7412C20.7063 11.5107 20.6118 11.2919 20.485 11.0934C20.3531 10.8871 20.1634 10.7006 19.4943 10.082L14.0363 5.03648C13.6257 4.65687 13.3622 4.41429 13.1469 4.24479C12.9422 4.08362 12.846 4.04213 12.7913 4.02555ZM11.6262 1.94531C12.1969 1.77246 12.8031 1.77246 13.3738 1.94531C13.7697 2.06523 14.0981 2.27614 14.4045 2.51738C14.693 2.74458 15.0179 3.04497 15.3921 3.39089L20.8784 8.46266C20.9079 8.48997 20.9371 8.5169 20.9659 8.54348C21.5093 9.04531 21.9198 9.4244 22.2199 9.89394C22.4736 10.2909 22.6626 10.7286 22.7793 11.1895C22.9174 11.7347 22.9171 12.3057 22.9167 13.0615C22.9167 13.1015 22.9167 13.1421 22.9167 13.1832V18.6464C22.9167 19.5332 22.9167 20.265 22.8691 20.8608C22.8197 21.4798 22.7136 22.0484 22.4476 22.581C22.0522 23.3724 21.4317 24.0178 20.6707 24.4289C20.1586 24.7056 19.6119 24.8159 19.0167 24.8673C18.4438 24.9168 17.7401 24.9168 16.8875 24.9168H16.4635C16.4555 24.9168 16.4473 24.9168 16.439 24.9168C16.3129 24.9168 16.1622 24.9169 16.0295 24.9054C15.8757 24.8921 15.6555 24.858 15.4256 24.7338C15.1402 24.5796 14.9075 24.3376 14.7593 24.0409C14.6398 23.8018 14.607 23.5727 14.5942 23.4127C14.5832 23.2748 14.5833 23.1181 14.5833 22.9869L14.5833 19.5001C14.5833 18.3035 13.6506 17.3334 12.5 17.3334C11.3494 17.3334 10.4167 18.3035 10.4167 19.5001L10.4167 22.9868C10.4167 23.1181 10.4168 23.2747 10.4058 23.4127C10.393 23.5727 10.3602 23.8017 10.2407 24.0409C10.0925 24.3376 9.85982 24.5796 9.57444 24.7338C9.34453 24.858 9.1243 24.8921 8.97046 24.9054C8.83779 24.9169 8.68712 24.9168 8.56095 24.9168C8.55268 24.9168 8.54451 24.9168 8.53646 24.9168H8.11252C7.25988 24.9168 6.55618 24.9168 5.98326 24.8673C5.3881 24.8159 4.84139 24.7056 4.32927 24.4289C3.56826 24.0178 2.94776 23.3724 2.55244 22.581C2.28642 22.0484 2.18031 21.4798 2.13088 20.8608C2.08331 20.265 2.08332 19.5332 2.08333 18.6464L2.08333 13.1832C2.08333 13.1421 2.08331 13.1015 2.08329 13.0615C2.08291 12.3057 2.08263 11.7347 2.22067 11.1895C2.33737 10.7286 2.52637 10.2909 2.78008 9.89395C3.08022 9.4244 3.49072 9.04531 4.03413 8.54349C4.06292 8.5169 4.09208 8.48997 4.12162 8.46266L9.6079 3.3909C9.98207 3.04498 10.307 2.74458 10.5955 2.51738C10.9019 2.27614 11.2302 2.06523 11.6262 1.94531Z" fill="#EEEEEE"/>
</svg>
