<svg width="375" height="119" viewBox="0 0 375 119" fill="none" xmlns="http://www.w3.org/2000/svg">
<g filter="url(#filter0_d_1_57)">
<path d="M342 21H33C28.5817 21 25 24.5817 25 29V82C25 86.4183 28.5817 90 33 90H342C346.418 90 350 86.4183 350 82V29C350 24.5817 346.418 21 342 21Z" fill="white"/>
<path d="M342 21.5H33C28.8579 21.5 25.5 24.8579 25.5 29V82C25.5 86.1421 28.8579 89.5 33 89.5H342C346.142 89.5 349.5 86.1421 349.5 82V29C349.5 24.8579 346.142 21.5 342 21.5Z" stroke="#3098BD"/>
</g>
<defs>
<filter id="filter0_d_1_57" x="0" y="0" width="375" height="119" filterUnits="userSpaceOnUse" color-interpolation-filters="sRGB">
<feFlood flood-opacity="0" result="BackgroundImageFix"/>
<feColorMatrix in="SourceAlpha" type="matrix" values="0 0 0 0 0 0 0 0 0 0 0 0 0 0 0 0 0 0 127 0" result="hardAlpha"/>
<feOffset dy="4"/>
<feGaussianBlur stdDeviation="12.5"/>
<feColorMatrix type="matrix" values="0 0 0 0 0.466667 0 0 0 0 0.47451 0 0 0 0 0.698039 0 0 0 0.102 0"/>
<feBlend mode="normal" in2="BackgroundImageFix" result="effect1_dropShadow_1_57"/>
<feBlend mode="normal" in="SourceGraphic" in2="effect1_dropShadow_1_57" result="shape"/>
</filter>
</defs>
</svg>
