<svg width="67" height="12" viewBox="0 0 67 12" fill="none" xmlns="http://www.w3.org/2000/svg">
<rect opacity="0.35" x="42.8333" y="0.833252" width="21" height="10.3333" rx="2.16667" stroke="#3C3C43" stroke-opacity="0.6"/>
<path opacity="0.4" d="M65.3333 4V8C66.138 7.66122 66.6614 6.87313 66.6614 6C66.6614 5.12687 66.138 4.33878 65.3333 4Z" fill="#3C3C43" fill-opacity="0.6"/>
<rect x="44.3333" y="2.33325" width="18" height="7.33333" rx="1.33333" fill="black"/>
<path fill-rule="evenodd" clip-rule="evenodd" d="M29.6671 2.61504C31.8918 2.61514 34.0315 3.46925 35.6438 5.00084C35.7652 5.11909 35.9593 5.1176 36.0789 4.9975L37.2395 3.82717C37.3 3.76626 37.3338 3.68375 37.3333 3.5979C37.3328 3.51205 37.2981 3.42994 37.2368 3.36974C33.0049 -0.682491 26.3286 -0.682491 22.0967 3.36974C22.0354 3.4299 22.0006 3.51198 22 3.59783C21.9994 3.68368 22.0331 3.76621 22.0936 3.82717L23.2546 4.9975C23.3741 5.11778 23.5683 5.11927 23.6897 5.00084C25.3022 3.46915 27.4421 2.61504 29.6671 2.61504ZM29.6671 6.42263C30.8894 6.42255 32.0681 6.87651 32.9742 7.69628C33.0968 7.81263 33.2898 7.8101 33.4093 7.6906L34.5685 6.52027C34.6296 6.45888 34.6635 6.3756 34.6626 6.28907C34.6617 6.20253 34.6261 6.11996 34.5639 6.05983C31.8047 3.49542 27.5318 3.49542 24.7726 6.05983C24.7103 6.11996 24.6747 6.20257 24.6739 6.28914C24.6731 6.3757 24.7071 6.45897 24.7683 6.52027L25.9272 7.6906C26.0467 7.8101 26.2397 7.81263 26.3623 7.69628C27.2677 6.87705 28.4455 6.42313 29.6671 6.42263ZM31.9893 8.98446C31.9911 9.07124 31.9569 9.15491 31.8949 9.2157L29.8896 11.2377C29.8308 11.2971 29.7507 11.3306 29.6671 11.3306C29.5834 11.3306 29.5033 11.2971 29.4445 11.2377L27.4389 9.2157C27.3769 9.15486 27.3428 9.07117 27.3447 8.98439C27.3465 8.89761 27.3841 8.81544 27.4486 8.75727C28.7292 7.675 30.6049 7.675 31.8856 8.75727C31.95 8.81548 31.9875 8.89769 31.9893 8.98446Z" fill="black"/>
<path fill-rule="evenodd" clip-rule="evenodd" d="M16 0.666504H15C14.4477 0.666504 14 1.11422 14 1.6665V10.3332C14 10.8855 14.4477 11.3332 15 11.3332H16C16.5523 11.3332 17 10.8855 17 10.3332V1.6665C17 1.11422 16.5523 0.666504 16 0.666504ZM10.3333 2.99984H11.3333C11.8856 2.99984 12.3333 3.44755 12.3333 3.99984V10.3332C12.3333 10.8855 11.8856 11.3332 11.3333 11.3332H10.3333C9.78105 11.3332 9.33333 10.8855 9.33333 10.3332V3.99984C9.33333 3.44755 9.78105 2.99984 10.3333 2.99984ZM6.66667 5.33317H5.66667C5.11438 5.33317 4.66667 5.78089 4.66667 6.33317V10.3332C4.66667 10.8855 5.11438 11.3332 5.66667 11.3332H6.66667C7.21895 11.3332 7.66667 10.8855 7.66667 10.3332V6.33317C7.66667 5.78089 7.21895 5.33317 6.66667 5.33317ZM2 7.33317H1C0.447715 7.33317 0 7.78089 0 8.33317V10.3332C0 10.8855 0.447715 11.3332 1 11.3332H2C2.55228 11.3332 3 10.8855 3 10.3332V8.33317C3 7.78089 2.55228 7.33317 2 7.33317Z" fill="black"/>
</svg>
