<svg width="66" height="58" viewBox="0 0 66 58" fill="none" xmlns="http://www.w3.org/2000/svg">
<path d="M40.6165 52.5097C47.8073 47.0449 58.1842 38.4894 62.5085 31.647C65.7441 26.5352 66.7969 20.202 65.3895 14.3136C62.3826 0.900156 45.7319 -4.58088 35.3602 4.40797C34.7768 4.91018 34.2391 5.46692 33.6872 6.0386C33.462 6.27191 33.2342 6.50767 33 6.74325C32.7658 6.50767 32.538 6.27187 32.3128 6.03856C31.7609 5.46692 31.2232 4.91018 30.6399 4.40797C20.2682 -4.58088 3.61741 0.900156 0.610493 14.3136C-0.79686 20.202 0.255807 26.5352 3.49156 31.647C7.81579 38.4894 18.1927 47.0449 25.3835 52.5097C27.3871 54.0327 33 58 33 58C33 58 38.6129 54.0327 40.6165 52.5097Z" fill="#6DFBA6"/>
</svg>
