<svg width="40" height="35" viewBox="0 0 40 35" fill="none" xmlns="http://www.w3.org/2000/svg">
<path d="M24.6161 31.6869C28.9741 28.3892 35.2631 23.2264 37.8839 19.0973C39.8449 16.0126 40.483 12.1909 39.63 8.63749C37.8077 0.543198 27.7163 -2.76432 21.4304 2.65998C21.0769 2.96304 20.751 3.299 20.4165 3.64398C20.28 3.78477 20.142 3.92704 20 4.0692C19.858 3.92704 19.72 3.78475 19.5835 3.64396C19.249 3.299 18.9231 2.96304 18.5696 2.65998C12.2837 -2.76432 2.19237 0.543198 0.369996 8.63749C-0.482946 12.1909 0.155035 16.0126 2.11609 19.0973C4.73684 23.2264 11.0259 28.3892 15.3839 31.6869C16.5982 32.606 20 35 20 35C20 35 23.4018 32.606 24.6161 31.6869Z" fill="#806DFB"/>
</svg>
