<svg width="13" height="13" viewBox="0 0 13 13" fill="none" xmlns="http://www.w3.org/2000/svg">
<circle cx="6.50026" cy="3.25014" r="2.32143" fill="#242327"/>
<path d="M13 6.5C13 7.35359 12.8319 8.19883 12.5052 8.98744C12.1786 9.77606 11.6998 10.4926 11.0962 11.0962C10.4926 11.6998 9.77606 12.1786 8.98744 12.5052C8.19883 12.8319 7.35359 13 6.5 13C5.64641 13 4.80117 12.8319 4.01256 12.5052C3.22394 12.1786 2.50739 11.6998 1.90381 11.0962C1.30022 10.4926 0.821438 9.77606 0.494783 8.98744C0.168127 8.19883 -7.46234e-08 7.35359 0 6.5L4.23752 6.5C4.23752 6.79711 4.29604 7.09132 4.40974 7.36581C4.52344 7.64031 4.6901 7.88972 4.90019 8.09981C5.11028 8.3099 5.35969 8.47656 5.63419 8.59026C5.90868 8.70396 6.20289 8.76248 6.5 8.76248C6.79711 8.76248 7.09132 8.70396 7.36581 8.59026C7.64031 8.47656 7.88972 8.3099 8.09981 8.09981C8.3099 7.88972 8.47656 7.64031 8.59026 7.36581C8.70396 7.09132 8.76248 6.79711 8.76248 6.5H13Z" fill="#242327"/>
</svg>
