<svg width="16" height="16" viewBox="0 0 16 16" fill="none" xmlns="http://www.w3.org/2000/svg">
<path d="M13.8422 8.33917C14.1047 7.9923 14.25 7.5673 14.25 7.12511C14.25 6.42355 13.8578 5.75948 13.2266 5.38917C13.0641 5.29385 12.879 5.24368 12.6906 5.24386H8.94375L9.0375 3.32355C9.05938 2.85948 8.89531 2.41886 8.57656 2.08292C8.42013 1.91734 8.23141 1.7856 8.02206 1.69584C7.8127 1.60607 7.58716 1.5602 7.35938 1.56105C6.54688 1.56105 5.82812 2.10792 5.6125 2.89073L4.27031 7.75011H4.26562V14.4376H11.6453C11.7891 14.4376 11.9297 14.4095 12.0594 14.3532C12.8031 14.036 13.2828 13.3095 13.2828 12.5032C13.2828 12.3064 13.2547 12.1126 13.1984 11.9251C13.4609 11.5782 13.6062 11.1532 13.6062 10.711C13.6062 10.5142 13.5781 10.3204 13.5219 10.1329C13.7844 9.78605 13.9297 9.36105 13.9297 8.91886C13.9266 8.72198 13.8984 8.52667 13.8422 8.33917ZM1.75 8.25011V13.9376C1.75 14.2142 1.97344 14.4376 2.25 14.4376H3.26562V7.75011H2.25C1.97344 7.75011 1.75 7.97355 1.75 8.25011Z" fill="#A7A6A5"/>
</svg>
