<svg width="173" height="145" viewBox="0 0 173 145" fill="none" xmlns="http://www.w3.org/2000/svg">
<mask id="mask0_2_783" style="mask-type:alpha" maskUnits="userSpaceOnUse" x="0" y="0" width="173" height="145">
<rect width="173" height="145" rx="32" fill="#F4F2F1"/>
</mask>
<g mask="url(#mask0_2_783)">
<path d="M86.5 -14L86.5167 72.4149L119.602 -7.41561L86.5481 72.4282L147.665 11.3353L86.5718 72.4519L166.416 39.3977L86.5851 72.4833L173 72.5L86.5851 72.5167L166.416 105.602L86.5718 72.5481L147.665 133.665L86.5481 72.5718L119.602 152.416L86.5167 72.5851L86.5 159L86.4833 72.5851L53.3977 152.416L86.4519 72.5718L25.3353 133.665L86.4282 72.5481L6.58439 105.602L86.4149 72.5167L0 72.5L86.4149 72.4833L6.58439 39.3977L86.4282 72.4519L25.3353 11.3353L86.4519 72.4282L53.3977 -7.41561L86.4833 72.4149L86.5 -14Z" fill="#F0C3D2" stroke="#242327"/>
</g>
</svg>
