<svg width="29" height="29" viewBox="0 0 29 29" fill="none" xmlns="http://www.w3.org/2000/svg">
<path fill-rule="evenodd" clip-rule="evenodd" d="M8.45834 8.45842C8.45834 5.12169 11.1633 2.41675 14.5 2.41675C17.8367 2.41675 20.5417 5.12169 20.5417 8.45842V13.2917C20.5417 16.6285 17.8367 19.3334 14.5 19.3334C11.1633 19.3334 8.45834 16.6285 8.45834 13.2917V8.45842ZM14.5 4.83341C12.498 4.83341 10.875 6.45638 10.875 8.45842V13.2917C10.875 15.2938 12.498 16.9167 14.5 16.9167C16.502 16.9167 18.125 15.2938 18.125 13.2917V8.45842C18.125 6.45638 16.502 4.83341 14.5 4.83341ZM5.43121 17.0823C6.00712 16.7451 6.74731 16.9387 7.08446 17.5146C8.56676 20.0467 11.3312 21.7501 14.5 21.7501C17.6688 21.7501 20.4332 20.0467 21.9156 17.5146C22.2527 16.9387 22.9929 16.7451 23.5688 17.0823C24.1447 17.4194 24.3383 18.1596 24.0011 18.7355C22.2912 21.6564 19.2524 23.7163 15.7083 24.1015V26.5834C15.7083 27.2508 15.1673 27.7917 14.5 27.7917C13.8327 27.7917 13.2917 27.2508 13.2917 26.5834V24.1015C9.74758 23.7163 6.70884 21.6564 4.99889 18.7355C4.66174 18.1596 4.85529 17.4194 5.43121 17.0823Z" fill="#EEEEEE"/>
</svg>
