<svg width="26" height="26" viewBox="0 0 26 26" fill="none" xmlns="http://www.w3.org/2000/svg">
<path fill-rule="evenodd" clip-rule="evenodd" d="M20.812 2.2396L4.00834 6.44052C1.77495 6.99887 1.49616 10.0601 3.59193 11.0127L8.76921 13.366C9.83067 13.8485 10.9797 14.0228 12.0963 13.9038C11.9773 15.0204 12.1516 16.1694 12.6341 17.2308L14.9874 22.4081C15.94 24.5039 19.0012 24.2251 19.5595 21.9917L23.7605 5.18805C24.2056 3.40737 22.5927 1.79444 20.812 2.2396ZM9.66579 11.3935C10.681 11.855 11.8172 11.8903 12.8347 11.5294C13.2192 11.3929 13.5868 11.1999 13.9245 10.9519C13.9715 10.9174 14.0179 10.8818 14.0638 10.8451L16.5433 8.8615C16.938 8.54578 17.4543 9.0621 17.1386 9.45675L15.1549 11.9363C15.1183 11.9821 15.0827 12.0286 15.0481 12.0756C14.8001 12.4133 14.6071 12.7808 14.4707 13.1654C14.1098 14.1829 14.1451 15.3191 14.6065 16.3343L16.9598 21.5116C17.0635 21.7397 17.3968 21.7094 17.4576 21.4662L21.6585 4.66255C21.7069 4.4687 21.5314 4.29311 21.3375 4.34158L4.53383 8.5425C4.2907 8.60328 4.26035 8.93653 4.4885 9.04024L9.66579 11.3935Z" fill="#3098BD"/>
</svg>
