<svg width="67" height="5" viewBox="0 0 67 5" fill="none" xmlns="http://www.w3.org/2000/svg">
<path d="M44.5 0H2.5C1.11929 0 0 1.11929 0 2.5C0 3.88071 1.11929 5 2.5 5H44.5C45.8807 5 47 3.88071 47 2.5C47 1.11929 45.8807 0 44.5 0Z" fill="#392A4F"/>
<path opacity="0.25" d="M64.5 0H61.5C60.1193 0 59 1.11929 59 2.5C59 3.88071 60.1193 5 61.5 5H64.5C65.8807 5 67 3.88071 67 2.5C67 1.11929 65.8807 0 64.5 0Z" fill="#392A4F"/>
<path opacity="0.25" d="M54.5 0H51.5C50.1193 0 49 1.11929 49 2.5C49 3.88071 50.1193 5 51.5 5H54.5C55.8807 5 57 3.88071 57 2.5C57 1.11929 55.8807 0 54.5 0Z" fill="#392A4F"/>
</svg>
