<svg width="12" height="10" viewBox="0 0 12 10" fill="none" xmlns="http://www.w3.org/2000/svg">
<path d="M4.16247 9.1813C4.06247 9.1813 3.96872 9.16555 3.88122 9.13405C3.79372 9.10305 3.71247 9.05005 3.63747 8.97505L0.41247 5.75005C0.27497 5.61255 0.20922 5.4343 0.21522 5.2153C0.22172 4.9968 0.29372 4.8188 0.43122 4.6813C0.56872 4.5438 0.74372 4.47505 0.95622 4.47505C1.16872 4.47505 1.34372 4.5438 1.48122 4.6813L4.16247 7.36255L10.5187 1.0063C10.6562 0.868799 10.8345 0.800049 11.0535 0.800049C11.272 0.800049 11.45 0.868799 11.5875 1.0063C11.725 1.1438 11.7937 1.3218 11.7937 1.5403C11.7937 1.7593 11.725 1.93755 11.5875 2.07505L4.68747 8.97505C4.61247 9.05005 4.53122 9.10305 4.44372 9.13405C4.35622 9.16555 4.26247 9.1813 4.16247 9.1813Z" fill="#242327"/>
</svg>
