<svg width="143" height="108" viewBox="0 0 143 108" fill="none" xmlns="http://www.w3.org/2000/svg">
<path d="M58.5004 3.50007C66.1004 5.50007 82.6666 8.33341 91.9999 10.5001C91.9999 10.5001 125 12.6751 123.5 13.5001C122 14.3251 99.0004 29.6001 97.0004 30.0001C94.5004 30.5001 96.0004 42.5001 99.5004 45.0001C102.3 47.0001 102.667 52.5001 102.5 55.0001C101.334 60.3334 100.1 70.5001 104.5 68.5001C110 66.0001 115.5 72.5001 117 72.5001C118.5 72.5001 126 70.0001 131 71.0001C136 72.0001 137 78.5001 139 85.5001C140.6 91.1001 137 91.8334 135 91.5001C82.5004 94.5001 81.5004 104.5 68.0004 104C57.2004 103.6 56.167 93.5001 57.0004 88.5001L21.5004 85.5001V75.5001L18.5004 72.5001V55.0001L28.0004 45.0001C28.5004 43.0001 29.2004 38.3001 28.0004 35.5001C26.5004 32.0001 14.4998 28 11.4998 27.5C8.49979 27 7.00093 30.9999 6 29.5C5.16739 28.2523 3.49995 25.5 3.99995 23.5C4.49995 21.5 49.0004 1.00007 58.5004 3.50007Z" fill="#F9F7F5" stroke="#F9F7F5" stroke-width="6"/>
</svg>
